<?xml version="1.0" encoding="utf-8"?>
<!-- Generator: Adobe Illustrator 17.0.0, SVG Export Plug-In . SVG Version: 6.00 Build 0)  -->
<!DOCTYPE svg PUBLIC "-//W3C//DTD SVG 1.1//EN" "http://www.w3.org/Graphics/SVG/1.1/DTD/svg11.dtd">
<svg version="1.1" id="Layer_1" xmlns="http://www.w3.org/2000/svg" xmlns:xlink="http://www.w3.org/1999/xlink" x="0px" y="0px"
	 width="45px" height="70px" viewBox="0 0 45 70" enable-background="new 0 0 45 70" xml:space="preserve">
<g>
	<g>
		<path fill="#4DAADA" d="M8.727,18.547c-0.513,0.159-0.982,0.662-1.013,1.198c0.46,13.848,11.097,25.447,3.996,39.085
			c-0.356,0.537-0.183,0.79,0.354,0.79c7.065-0.001,14.13,0,21.195,0c0.537,0,1.234-0.253,1.59-0.79
			c7.101-13.638-3.535-25.238-3.997-39.085c0.03-0.536-0.553-0.646-1.518-1.198c-0.965-0.551-8.903-4.437-12.822-8.167
			c-1.326,3.77-5.523,7.072-6.409,7.583C9.32,18.319,9.272,18.378,8.727,18.547z M28.151,45.421c1.778,0.005,2.88-0.464,3.693-0.856
			c0.403,0.941,0.586,1.413,0.903,2.355c-0.774,0.427-2.561,0.988-4.87,0.998c-5.265,0.02-8.941-4.226-10.562-8.81
			c-1.67-4.724,0.684-9.257,6.033-9.164c1.822,0.031,3.644,0.463,4.643,0.891c0.039,0.97,0.07,1.455,0.135,2.425
			c-0.903-0.427-2.276-0.766-3.932-0.818c-3.728-0.121-4.846,3.577-3.753,6.525C21.638,42.199,24.372,45.41,28.151,45.421z"/>
	</g>
</g>
</svg>
