<?xml version="1.0" encoding="utf-8"?>
<!-- Generator: Adobe Illustrator 17.0.0, SVG Export Plug-In . SVG Version: 6.00 Build 0)  -->
<!DOCTYPE svg PUBLIC "-//W3C//DTD SVG 1.1//EN" "http://www.w3.org/Graphics/SVG/1.1/DTD/svg11.dtd">
<svg version="1.1" id="Layer_1" xmlns="http://www.w3.org/2000/svg" xmlns:xlink="http://www.w3.org/1999/xlink" x="0px" y="0px"
	 width="70px" height="45px" viewBox="0 0 70 45" enable-background="new 0 0 70 45" xml:space="preserve">
<g>
	<path fill="#4DAADA" d="M47.76,15.811c-1.801,0-3.273,1.465-3.273,3.273v2.176c0,1.809,1.473,3.28,3.273,3.28H55.4v-8.73H47.76z
		 M49.943,21.811c-0.902,0-1.633-0.734-1.633-1.641c0-0.902,0.731-1.629,1.633-1.629c0.902,0,1.641,0.726,1.641,1.629
		C51.584,21.076,50.846,21.811,49.943,21.811L49.943,21.811z M52.998,4.1H16.202c-3.094,0-5.602,2.508-5.602,5.602V36.9
		c0,2.207,1.793,4,4,4H51.4c2.207,0,4-1.793,4-4V26.139H47.76c-2.68,0-4.871-2.191-4.871-4.871v-2.184
		c0-2.68,2.191-4.871,4.871-4.871H55.4v-2.914c0-1.766-1.434-3.199-3.199-3.199H15.4C14.959,8.1,14.6,7.74,14.6,7.299
		c0-0.438,0.359-0.801,0.801-0.801h36.801c2.648,0,4.797,2.148,4.797,4.801V35.9c1.449-1.016,2.402-2.696,2.402-4.601V10.498
		C59.4,6.967,56.533,4.1,52.998,4.1L52.998,4.1z M47.76,15.811c-1.801,0-3.273,1.465-3.273,3.273v2.176
		c0,1.809,1.473,3.28,3.273,3.28H55.4v-8.73H47.76z M49.943,21.811c-0.902,0-1.633-0.734-1.633-1.641
		c0-0.902,0.731-1.629,1.633-1.629c0.902,0,1.641,0.726,1.641,1.629C51.584,21.076,50.846,21.811,49.943,21.811L49.943,21.811z
		 M47.76,15.811c-1.801,0-3.273,1.465-3.273,3.273v2.176c0,1.809,1.473,3.28,3.273,3.28H55.4v-8.73H47.76z M49.943,21.811
		c-0.902,0-1.633-0.734-1.633-1.641c0-0.902,0.731-1.629,1.633-1.629c0.902,0,1.641,0.726,1.641,1.629
		C51.584,21.076,50.846,21.811,49.943,21.811L49.943,21.811z M49.943,21.811"/>
</g>
</svg>
