<?xml version="1.0" encoding="utf-8"?>
<!-- Generator: Adobe Illustrator 17.0.0, SVG Export Plug-In . SVG Version: 6.00 Build 0)  -->
<!DOCTYPE svg PUBLIC "-//W3C//DTD SVG 1.1//EN" "http://www.w3.org/Graphics/SVG/1.1/DTD/svg11.dtd">
<svg version="1.1" id="Layer_1" xmlns="http://www.w3.org/2000/svg" xmlns:xlink="http://www.w3.org/1999/xlink" x="0px" y="0px"
	 width="70px" height="45px" viewBox="0 0 70 45" enable-background="new 0 0 70 45" xml:space="preserve">
<path fill="#4DAADA" d="M65.332,14H51.345L29.9,0.721L0.869,14.977l0.167,22.259L24,40.165v2.019C24,43.964,25.149,45,26.805,45
	h38.527C67.011,45,69,43.935,69,42.184V17.056C69,15.305,67.011,14,65.332,14z M40.445,21.691L28,20.753V18h37v24H28v-7h12.423
	c0.227,0,0.457,0,0.69,0c3.269,0,5.918-3.118,5.918-6.659s-2.774-6.536-6.042-6.536L40.445,21.691z"/>
</svg>
