<?xml version="1.0" encoding="utf-8"?>
<!-- Generator: Adobe Illustrator 17.0.0, SVG Export Plug-In . SVG Version: 6.00 Build 0)  -->
<!DOCTYPE svg PUBLIC "-//W3C//DTD SVG 1.1//EN" "http://www.w3.org/Graphics/SVG/1.1/DTD/svg11.dtd">
<svg version="1.1" id="Layer_1" xmlns="http://www.w3.org/2000/svg" xmlns:xlink="http://www.w3.org/1999/xlink" x="0px" y="0px"
	 width="112px" height="48px" viewBox="0 0 112 48" enable-background="new 0 0 112 48" xml:space="preserve">
<g>
	<g>
		<polygon fill="#604C3F" points="12.552,0.494 18.817,4.11 12.552,7.727 		"/>
		<polygon fill="#604C3F" points="12.552,29.424 18.817,33.041 12.552,36.657 		"/>
		<polygon fill="#C0C1C2" points="12.552,36.657 18.817,40.273 12.552,43.89 		"/>
		<polygon fill="#B34C8E" points="6.29,40.273 12.552,43.89 6.29,47.506 		"/>
		<polygon fill="#C0C1C2" points="12.552,29.424 6.29,33.041 12.552,36.657 		"/>
		<polygon fill="#C0C1C2" points="0.026,36.657 6.29,40.273 0.026,43.89 		"/>
		<polygon fill="#733B8A" points="12.552,7.727 18.817,11.343 12.552,14.959 		"/>
		<polygon fill="#BBCE00" points="12.552,14.959 18.817,18.576 12.552,22.192 		"/>
		<polygon fill="#C0C1C2" points="12.552,22.192 18.817,25.808 12.552,29.424 		"/>
		<polygon fill="#DD1373" points="18.817,4.11 12.552,7.727 18.817,11.343 		"/>
		<polygon fill="#C0C1C2" points="18.817,11.343 12.552,14.959 18.817,18.576 		"/>
		<polygon fill="#FFE800" points="18.817,25.808 12.552,29.424 18.817,33.041 		"/>
		<polygon fill="#FFE800" points="12.552,36.657 6.29,40.273 12.552,43.89 		"/>
		<polygon fill="#231815" points="18.817,33.041 12.552,36.657 18.817,40.273 		"/>
		<polygon fill="#C0C1C2" points="6.29,40.273 0.026,43.89 6.29,47.506 		"/>
		<polygon fill="#733B8A" points="6.29,33.041 0.026,36.657 6.29,40.273 		"/>
		<polygon fill="#231815" points="6.29,18.576 0.026,22.192 6.29,25.809 		"/>
		<polygon fill="#036EAF" points="6.29,11.343 0.026,14.959 6.29,18.576 		"/>
		<polygon fill="#4CA3D9" points="6.29,25.808 0.026,29.424 6.29,33.041 		"/>
		<polygon fill="#4CA3D9" points="0.026,22.192 6.29,25.809 0.026,29.424 		"/>
		<polygon fill="#7AC2D4" points="0.026,14.959 6.29,18.576 0.026,22.192 		"/>
		<polygon fill="#BBCE00" points="0.026,7.727 6.29,11.343 0.026,14.959 		"/>
	</g>
	<g>
		<path fill="#FFFFFF" d="M111.974,29.273c0,1.049-0.636,1.736-1.906,2.059c-0.469,0.135-5.185,0.202-6.801,0.202
			c-0.264,0-0.442-0.079-0.533-0.235c-0.069-0.102-0.104-0.302-0.104-0.6c0-0.428,0.212-0.642,0.637-0.642h0.219h0.136h0.082
			c0.053,0,0.083,0.003,0.089,0.008c0.118,0.005,0.218,0.01,0.303,0.012c0.083,0.003,4.24,0.004,4.298,0.004
			c1.518,0,1.867-0.25,1.867-0.75h-5.084c-2.562,0-3.843-0.77-3.843-2.309v-4.73c0-0.307,0.113-0.5,0.34-0.582
			c0.069-0.037,0.314-0.057,0.734-0.057c0.419,0,0.63,0.213,0.63,0.638v4.73c0,0.592,0.712,0.888,2.139,0.888h5.084v-5.618
			c0-0.425,0.214-0.638,0.641-0.638c0.419,0,0.663,0.02,0.733,0.057c0.226,0.081,0.34,0.274,0.34,0.582V29.273z"/>
		<path fill="#FFFFFF" d="M64.492,27.114c-0.024,1.616-1.251,2.402-3.674,2.363l-4.341-0.069c-0.93-0.015-1.731-0.2-2.405-0.553
			c-0.906-0.452-1.354-1.067-1.341-1.846l0.017-1.026c0.013-0.841,0.457-1.464,1.332-1.872c0.65-0.314,1.462-0.463,2.431-0.447
			l6.275,0.103c-0.085-0.569-0.883-0.866-2.392-0.891c-0.061-0.001-0.135,0-0.222,0c-0.088,0.003-0.188,0.005-0.301,0.008
			c-0.004,0.006-0.033,0.008-0.084,0.008l-0.074,0l-0.137-0.003l-5.213,0.133c-0.439-0.007-0.653-0.287-0.643-0.844
			c0.006-0.441,0.229-0.658,0.666-0.652c1.418,0.023,7.507,0.001,8.256,0.209c1.284,0.386,1.917,1.125,1.899,2.218L64.492,27.114z
			 M62.758,26.664c0-0.078,0-0.175,0-0.293c-0.003-0.118-0.005-0.255-0.009-0.413c-0.002-0.156-0.004-0.293-0.004-0.413
			c-0.001-0.117-0.001-0.215,0-0.293l-6.3-0.102c-0.37-0.007-0.754,0.055-1.147,0.184c-0.514,0.165-0.772,0.389-0.775,0.669
			l-0.017,1.017c-0.004,0.297,0.255,0.528,0.781,0.695c0.334,0.128,0.724,0.196,1.164,0.204l4.408,0.07
			c0.66,0.011,1.116-0.045,1.366-0.17C62.569,27.648,62.748,27.265,62.758,26.664z"/>
		<path fill="#FFFFFF" d="M39.688,26.626c0,1.906-1.828,2.859-5.479,2.859c-0.109,0-0.25-0.001-0.416-0.005
			c-0.168-0.002-0.361-0.007-0.58-0.013c-0.221-0.005-0.412-0.009-0.577-0.012c-0.164-0.003-0.301-0.003-0.413-0.003
			c-2.569,0-4.116-0.483-4.638-1.451c-0.181-0.335-0.271-0.793-0.271-1.375V20.06c0-0.428,0.212-0.643,0.64-0.643
			c0.409,0,0.672,0.017,0.786,0.05c0.271,0.082,0.402,0.28,0.402,0.593v6.443c0,0.637,0.389,1.063,1.162,1.277
			c0.232,0.055,0.503,0.096,0.82,0.123c0.315,0.028,0.688,0.042,1.115,0.042h2.522c0.96,0,1.606-0.052,1.936-0.157
			c0.774-0.203,1.161-0.628,1.161-1.276V20.06c0-0.318,0.13-0.516,0.389-0.593c0.105-0.033,0.371-0.05,0.794-0.05
			c0.433,0,0.646,0.215,0.646,0.643V26.626z"/>
		<path fill="#FFFFFF" d="M51.98,28.801c0,0.433-0.269,0.651-0.807,0.651h-6.436c-1.236,0-2.125-0.119-2.669-0.354
			c-0.934-0.374-1.401-1.052-1.401-2.036v-3.113c0-1.599,1.236-2.398,3.708-2.398h6.888c0.451,0,0.675,0.244,0.675,0.733
			c0,0.489-0.224,0.733-0.675,0.733H44.5c-1.395,0-2.093,0.294-2.093,0.882v3.089c0,0.671,0.794,1.006,2.382,1.006h6.541
			C51.763,27.994,51.98,28.263,51.98,28.801z"/>
		<path fill="#FFFFFF" d="M76.349,28.801c0,0.433-0.216,0.651-0.65,0.651c-0.428,0-0.678-0.02-0.748-0.059
			c-0.237-0.081-0.355-0.28-0.355-0.592v-5.025c0-0.358-0.297-0.591-0.89-0.701c-0.104-0.021-0.266-0.037-0.482-0.045
			c-0.217-0.009-0.489-0.013-0.819-0.013h-2.999c-0.302,0-0.556,0.006-0.763,0.016c-0.205,0.011-0.37,0.028-0.49,0.05
			c-0.56,0.109-0.84,0.343-0.84,0.7v5.017c0,0.433-0.215,0.651-0.642,0.651c-0.43,0-0.679-0.02-0.751-0.059
			c-0.229-0.081-0.347-0.28-0.347-0.592V23.8c0-1.499,1.331-2.249,3.986-2.249h2.845c2.631,0,3.945,0.744,3.945,2.233V28.801z"/>
		<path fill="#FFFFFF" d="M89.795,23.208c0,1.004-0.5,1.729-1.499,2.174c-0.773,0.324-1.709,0.485-2.801,0.485h-6.354v2.934
			c0,0.312-0.132,0.511-0.395,0.592c-0.071,0.039-0.335,0.059-0.791,0.059c-0.431,0-0.643-0.218-0.643-0.651V20.06
			c0-0.428,0.212-0.643,0.643-0.643h7.62c1.031,0,1.909,0.144,2.629,0.428c1.06,0.396,1.59,0.997,1.59,1.805V23.208z M87.983,23.144
			V21.78c0-0.582-0.796-0.871-2.391-0.871h-6.45v3.452h6.461C87.188,24.36,87.983,23.955,87.983,23.144z"/>
		<path fill="#FFFFFF" d="M100.7,27.141c-0.026,1.616-1.251,2.402-3.674,2.364l-4.341-0.071c-0.93-0.014-1.73-0.199-2.404-0.552
			c-0.907-0.453-1.354-1.067-1.342-1.847l0.016-1.025c0.014-0.842,0.459-1.465,1.334-1.873c0.649-0.313,1.461-0.463,2.431-0.447
			l6.273,0.102c-0.084-0.569-0.883-0.866-2.392-0.89c-0.061-0.002-0.134-0.001-0.221,0c-0.088,0.002-0.189,0.004-0.301,0.007
			c-0.005,0.006-0.033,0.008-0.084,0.008l-0.074-0.001l-0.137-0.003l-5.215,0.133c-0.437-0.007-0.651-0.288-0.644-0.843
			c0.009-0.443,0.23-0.659,0.668-0.653c1.419,0.022,7.509,0.002,8.255,0.209c1.285,0.385,1.92,1.125,1.901,2.217L100.7,27.141z
			 M98.965,26.691c0.002-0.078,0.002-0.176,0-0.294c-0.001-0.119-0.003-0.255-0.008-0.412c-0.004-0.157-0.005-0.294-0.005-0.413
			c-0.001-0.118-0.001-0.216,0-0.294l-6.299-0.102c-0.371-0.005-0.754,0.055-1.147,0.185c-0.515,0.166-0.771,0.388-0.776,0.668
			l-0.018,1.018c-0.004,0.296,0.256,0.527,0.78,0.695c0.334,0.128,0.725,0.195,1.166,0.203l4.408,0.07
			c0.659,0.012,1.116-0.045,1.366-0.17C98.776,27.675,98.954,27.292,98.965,26.691z"/>
	</g>
</g>
</svg>
